<?xml version="1.0" encoding="UTF-8" standalone="no"?>
<svg
   xmlns:dc="http://purl.org/dc/elements/1.1/"
   xmlns:cc="http://creativecommons.org/ns#"
   xmlns:rdf="http://www.w3.org/1999/02/22-rdf-syntax-ns#"
   xmlns:svg="http://www.w3.org/2000/svg"
   xmlns="http://www.w3.org/2000/svg"
   viewBox="0 0 1191.3375 797.73749"
   height="797.73749"
   width="1191.3375"
   xml:space="preserve"
   version="1.1"
   id="svg2"><metadata
     id="metadata8"><rdf:RDF><cc:Work
         rdf:about=""><dc:format>image/svg+xml</dc:format><dc:type
           rdf:resource="http://purl.org/dc/dcmitype/StillImage" /></cc:Work></rdf:RDF></metadata><defs
     id="defs6" /><g
     transform="matrix(1.25,0,0,-1.25,0,797.7375)"
     id="g10"><g
       transform="scale(0.1,0.1)"
       id="g12"><path
         id="path14"
         style="fill:#fff;fill-opacity:1;fill-rule:evenodd;stroke:none"
         d="m 1075.33,6205.17 c 194.43,-615.76 403.63,-1216.74 589.23,-1841.33 34.36,559.78 4.91,1183.36 14.73,1767.68 335.59,-27.77 658.42,-68.29 1016.41,-73.65 0,-1286.47 0,-2572.96 0,-3859.43 -387.13,-35.15 -778.66,-65.89 -1148.99,-117.83 -181.96,584.02 -351.54,1180.44 -530.3,1767.67 C 982.047,3259.05 1011.49,2606 1001.67,1992.21 634.586,1951.75 343.293,1835.5 0,1771.26 c 0,1536.89 0,3073.8 0,4610.68 350.836,-66.53 695.25,-139.48 1075.33,-176.77" /><path
         id="path16"
         style="fill:#fff;fill-opacity:1;fill-rule:evenodd;stroke:none"
         d="m 7527.34,3303.25 c 171.86,0 343.72,0 515.58,0 -9.82,648.13 19.63,1335.56 -14.74,1959.17 C 7864.1,4606.5 7684.28,3966.31 7527.34,3303.25 Z m 2003.37,0 c 0,-265.16 0,-530.31 0,-795.46 -112.94,0 -225.87,0 -338.81,0 0,-265.16 0,-530.31 0,-795.45 -346.36,125.01 -762.83,179.91 -1148.98,265.14 0,176.77 0,353.54 0,530.31 -461.56,0 -1384.68,0 -1384.68,0 l 0,795.46 c 0,0 149.33,454.89 220.95,677.61 229.25,712.94 444.23,1373.56 692.34,2047.55 545.51,53.55 1135.55,141.09 1620.37,206.22 0,-977.13 0,-1954.25 0,-2931.38 112.94,0 225.87,0 338.81,0" /><path
         id="path18"
         style="fill:#fff;fill-opacity:1;fill-rule:evenodd;stroke:none"
         d="m 4448.64,6013.68 c 71.62,-576.54 170.14,-1126.16 235.69,-1708.76 113.25,534.9 157.58,1138.72 235.69,1708.76 565.02,-5.27 1108.29,11.23 1635.1,44.19 0,-1281.58 0,-2563.11 0,-3844.7 -353.84,14.43 -688.41,48.13 -1060.6,44.2 0,869.11 0,1738.2 0,2607.32 C 5360,4017.15 5254.65,3140.47 5140.98,2272.11 c -299.53,0 -599.05,0 -898.57,0 -103.89,853.58 -244,1670.97 -353.53,2518.93 -34.36,-815.1 -4.92,-1694.03 -14.73,-2533.67 -372.41,4.14 -713.18,-23.37 -1060.61,-44.2 9.82,1276.66 -19.63,2592.61 14.74,3844.7 538.18,-16.68 1057.13,-52.57 1620.36,-44.19" /><path
         id="path20"
         style="fill:#fff;fill-opacity:1;fill-rule:evenodd;stroke:none"
         d="m 3093.96,458.102 c -2.16,-8.051 -0.19,-21.442 -2.68,-32.102 -4.38,-18.691 -17.81,-36.699 -24.07,-58.832 -20.68,-73.219 -18.94,-178.008 32.1,-216.637 87.51,-66.2497 221.77,46.887 262.1,98.969 -113.61,71.828 -176.05,209.031 -168.5,393.141 -32.02,-56.86 -78.69,-108.723 -98.95,-184.539 z M 6634.93,396.59 c 4.64,-39.469 -7.73,-75.781 -40.13,-88.25 -27.97,-10.789 -64.22,-1.59 -88.24,-18.731 -44.25,-31.578 -44.48,-133.828 8.02,-152.461 28.44,-10.058 72.23,2.133 93.61,13.383 168.78,88.879 184.67,453.957 53.48,599.09 -2.67,0 -3.18,2.149 -5.36,2.66 C 6610.26,678 6564.63,603.289 6525.27,522.27 c 63.09,-17.52 102.82,-67.442 109.66,-125.68 z m -478.72,173.84 c 48.02,46.129 103.46,119.519 101.62,200.578 -1.05,46.031 -23.67,72.933 -74.89,66.883 -75.44,-8.93 -146.59,-94.852 -192.56,-152.461 -52.56,-65.871 -97.89,-138.692 -128.36,-205.93 116.43,-12.211 222.51,22.07 294.19,90.93 z M 3545.94,677.41 c 4.13,61.531 -1.47,126.469 -34.78,152.442 -34.69,27.066 -92.78,7.816 -117.66,-13.383 -115.05,-97.969 -109.15,-415.75 32.1,-478.731 47.66,90.973 111.27,204.403 120.34,339.672 z m -879.9,1093.85 c 8.03,0 16.05,0 24.08,0 111.88,-34.37 219.78,-113.47 235.34,-235.36 5.78,-45.11 -52.73,-120.64 -77.56,-160.44 -207.65,-333.13 -440.09,-666.792 -631.16,-997.601 109.05,139.332 227.19,292.032 350.35,430.582 38.38,43.188 86.07,104.539 136.41,125.719 99.32,41.77 247.86,-67.461 232.67,-171.18 -8.02,-54.73 -48.86,-108.21 -74.89,-155.121 -56.7,-102.129 -113.52,-196.949 -168.49,-296.851 -27.31,-49.66 -64.03,-101.969 -61.51,-165.828 83.21,-10.11 145.88,50.91 195.24,98.968 50.98,49.641 103.68,110.782 133.72,171.153 28.37,57.058 40.31,115.687 66.86,168.488 25.75,51.25 58.02,98.43 93.59,144.422 64.45,83.289 147.57,168.109 259.43,213.957 25.89,10.613 51.31,16.41 77.56,18.723 201.92,17.777 342.08,-53.379 371.75,-219.313 31.89,-178.277 -62.42,-321.629 -139.07,-441.258 88.13,16.168 138.73,69.848 179.19,133.719 15.3,95.602 29.89,170.012 50.81,267.441 13.12,61.059 39.83,206.508 88.26,232.68 98.2,53.008 246.99,-60.64 248.72,-141.769 0.67,-31.301 -20.23,-60.782 -34.76,-88.231 -45.58,-86.058 -88.45,-163.922 -128.38,-246.058 81.76,120.128 181.98,266.687 280.81,382.437 31.88,37.32 73.01,90.621 120.36,104.313 83.9,24.257 200.51,-52.524 208.59,-120.352 4.62,-38.539 -14.24,-66.121 -29.4,-96.289 -36.71,-73.051 -81.97,-148.582 -112.32,-216.621 73.31,95.691 169.65,234.769 259.42,336.988 30.19,34.383 70.52,79.09 112.32,90.922 64.25,18.168 141.41,-29.07 171.16,-58.84 18.41,-18.43 44.54,-53.262 48.15,-88.269 6.93,-67.141 -46.58,-134.262 -74.89,-181.852 -62.28,-104.711 -124,-197.891 -181.85,-296.848 -29.39,-50.242 -67.47,-102.191 -66.88,-168.511 21.64,-12.629 47.96,0.058 66.88,8.031 59.95,25.309 110.84,68.937 155.1,117.668 37.88,41.699 93.82,105.301 115.02,160.469 15.35,39.992 19.3,89.343 32.08,133.73 25.35,88.051 52.03,165.133 85.59,248.723 14.22,35.437 34.24,93.597 56.15,112.32 39.43,33.668 112.68,10.699 152.45,-10.691 42.46,-22.871 77.08,-56.379 90.92,-90.93 31.27,-78.039 -33.92,-154.07 -64.17,-208.602 -58.36,-105.097 -116.22,-198.808 -171.17,-299.539 -27.68,-50.738 -64.8,-104.699 -61.51,-171.179 25.44,-11.809 55.63,0.511 74.9,10.711 46.61,24.64 86.41,75.058 120.34,123.007 34.26,48.43 72.35,106.93 88.26,155.141 8.12,24.602 7.38,49.742 13.35,72.211 42.16,158.359 134.51,281.621 254.06,363.711 63.54,43.609 154.5,81.789 262.11,90.93 147.36,12.507 285.79,-25.922 288.83,-173.84 2.71,-130.34 -87.69,-236.77 -163.11,-302.223 -95.87,-83.156 -246.27,-135.68 -406.53,-106.969 -38.06,-76.32 -53.73,-217.121 29.42,-246.058 62.27,-21.641 157.92,4.527 203.25,21.41 57.98,21.559 109.05,54.988 149.78,88.25 93.61,76.449 133.07,166.168 195.24,278.168 82.84,149.242 176.72,296.16 267.44,443.941 23.06,37.57 61.85,129.28 104.29,133.72 74.25,7.76 154.65,-105.188 155.13,-168.489 0.15,-20.891 -12.59,-36.492 -13.35,-56.16 -2.42,-60.321 35.25,-122.231 53.46,-176.52 20.7,-61.621 34.67,-118.269 40.12,-189.871 0,-11.602 0,-23.199 0,-34.789 C 7001.63,379.09 6953.26,14.4414 6549.34,8.78906 6429.57,7.10938 6368.04,109.34 6338.07,204.008 6265,133.461 6149.16,47.7305 6009.12,22.1484 5806.05,-14.9219 5637.8,55.4609 5589.21,217.398 5572.28,208.59 5561.26,187.57 5546.42,169.25 5489,98.3711 5389.42,-8.64063 5252.23,8.78906 5173.09,18.8203 5142.42,94.7695 5137.23,182.609 5054.16,118.469 4953.53,-9.30859 4792.23,8.78906 4614.39,28.7617 4699.32,303.09 4741.41,434.039 c 34.32,106.66 78.59,202.16 104.31,286.141 -162.6,-167.2 -318.43,-386.762 -454.66,-591.039 -21.4,-32.1019 -37.4,-67.7816 -61.51,-90.9301 -14.28,-13.7226 -39.25,-34.58981 -66.86,-29.42184 -50.45,9.44924 -26.75,119.81994 -18.73,163.15194 33.31,179.567 76.7,345.411 123.03,502.778 -7.86,8.972 -9.69,-6.918 -10.69,-8.02 C 4243.45,543.891 4151.57,400.578 4056.75,262.871 4022.72,213.441 3984.92,163.711 3957.81,115.77 3935.21,75.8398 3908.23,-6.39844 3842.8,8.78906 3801.7,18.3281 3810.39,79.7695 3816.06,118.43 c 6.69,45.609 15.42,86.261 21.4,125.718 -53.63,-25.718 -111.34,-56.25 -189.9,-61.539 -17.57,-1.16 -40.47,4.789 -58.83,0 -23.18,-6 -49.1,-38.789 -77.57,-58.82 C 3429.05,65.9805 3333.01,14.0703 3214.31,6.12109 3063.93,-3.96094 2961.93,57.4805 2946.87,187.969 2930.19,177.301 2913.84,161.391 2896.05,145.18 2828.93,84.0586 2731.9,-4.92188 2599.18,8.78906 2519.66,17 2486.2,79.5 2484.19,161.238 c -2.52,101.891 31.23,205.082 61.51,299.524 30.78,96.09 64.9,188.136 93.59,270.129 -14.22,2.918 -26.77,-18.743 -37.44,-29.411 -167.87,-167.871 -316.68,-364.789 -459.99,-553.621 -22.97,-30.25 -51.28,-58.0777 -69.55,-88.2574 -15.74,-26 -18.2,-53.97269 -50.81,-58.839881 -41.55,-6.203129 -81.79,26.277381 -88.26,64.199181 -8.92,52.2891 8.25,87.7771 18.73,131.0271 30.66,126.68 73.12,242.043 112.33,345.02 155.35,408.062 342.05,771.722 529.53,1144.662 18.96,37.7 35.98,85.18 72.21,85.59" /><path
         id="path22"
         style="fill:#fff;fill-opacity:1;fill-rule:evenodd;stroke:none"
         d="m 5613.29,1367.41 c 102.01,12.94 186.57,-61.83 187.21,-160.47 0.61,-93.12 -67.28,-158.22 -149.77,-165.8 -121.74,-11.22 -230.84,112.27 -163.14,243.36 16.07,31.12 63.19,74.98 125.7,82.91" /></g></g></svg>